<svg width="952" height="187" viewBox="0 0 952 187" fill="none" xmlns="http://www.w3.org/2000/svg">
    <circle opacity="0.380121" cx="563" cy="77.5" r="3.5" fill="#0B2648"/>
    <circle opacity="0.380121" cx="4" cy="13.5" r="3.5" fill="#0B2648"/>
    <circle opacity="0.380121" cx="890" cy="24.5" r="3.5" fill="#0B2648"/>
    <circle opacity="0.380121" cx="230" cy="3.5" r="3.5" fill="#0B2648"/>
    <circle opacity="0.380121" cx="925" cy="81.5" r="7.5" fill="#0B2648"/>
    <circle opacity="0.380121" cx="78" cy="98.5" r="7.5" fill="#0B2648"/>
    <path opacity="0.707584" d="M941.531 168.442C941.554 168.191 941.761 167.999 942.009 168C942.255 168.001 942.462 168.192 942.486 168.442L943.172 174.516C943.189 174.684 943.291 174.83 943.441 174.901C943.59 174.975 943.765 174.965 943.905 174.875L948.992 171.636C949.205 171.469 949.511 171.51 949.675 171.727C949.839 171.945 949.799 172.257 949.586 172.424L945.355 176.759C945.24 176.875 945.193 177.042 945.229 177.202C945.264 177.367 945.381 177.501 945.537 177.556L951.179 179.591C951.409 179.674 951.542 179.92 951.488 180.163C951.434 180.406 951.209 180.569 950.966 180.542L945.021 179.856C944.855 179.837 944.691 179.905 944.587 180.038C944.482 180.169 944.453 180.347 944.508 180.506L946.474 186.284C946.594 186.528 946.497 186.826 946.257 186.948C946.018 187.07 945.726 186.971 945.606 186.726L942.412 181.533C942.325 181.391 942.172 181.306 942.009 181.307C941.844 181.306 941.69 181.391 941.601 181.533L938.398 186.704C938.278 186.949 937.987 187.048 937.747 186.926C937.507 186.803 937.41 186.506 937.53 186.262L939.5 180.506C939.552 180.347 939.523 180.171 939.422 180.038C939.317 179.906 939.154 179.838 938.988 179.856L933.034 180.529C932.791 180.555 932.566 180.393 932.512 180.149C932.458 179.906 932.591 179.661 932.821 179.577L938.463 177.542C938.617 177.485 938.733 177.352 938.771 177.188C938.804 177.028 938.755 176.862 938.641 176.746L934.427 172.424C934.261 172.246 934.249 171.971 934.399 171.78C934.549 171.588 934.815 171.538 935.022 171.663L940.112 174.901C940.252 174.992 940.428 175.002 940.577 174.928C940.725 174.855 940.826 174.71 940.846 174.543L941.531 168.442Z" fill="white"/>
    <path opacity="0.707584" d="M197.531 96.4424C197.554 96.191 197.761 95.999 198.009 96C198.255 96.001 198.462 96.192 198.486 96.4424L199.172 102.516C199.189 102.684 199.291 102.83 199.441 102.901C199.59 102.975 199.765 102.965 199.905 102.875L204.992 99.6365C205.205 99.4691 205.511 99.5097 205.675 99.7272C205.839 99.9446 205.799 100.257 205.586 100.424L201.355 104.759C201.24 104.875 201.193 105.042 201.229 105.202C201.264 105.367 201.381 105.501 201.537 105.556L207.179 107.591C207.409 107.674 207.542 107.92 207.488 108.163C207.434 108.406 207.209 108.569 206.966 108.542L201.021 107.856C200.855 107.837 200.691 107.905 200.587 108.038C200.482 108.169 200.453 108.347 200.508 108.506L202.474 114.284C202.594 114.528 202.497 114.826 202.257 114.948C202.018 115.07 201.726 114.971 201.606 114.726L198.412 109.533C198.325 109.391 198.172 109.306 198.009 109.307C197.844 109.306 197.69 109.391 197.601 109.533L194.398 114.704C194.278 114.949 193.987 115.048 193.747 114.926C193.507 114.803 193.41 114.506 193.53 114.262L195.5 108.506C195.552 108.347 195.523 108.171 195.422 108.038C195.317 107.906 195.154 107.838 194.988 107.856L189.034 108.529C188.791 108.555 188.566 108.393 188.512 108.149C188.458 107.906 188.591 107.661 188.821 107.577L194.463 105.542C194.617 105.485 194.733 105.352 194.771 105.188C194.804 105.028 194.755 104.862 194.641 104.746L190.427 100.424C190.261 100.246 190.249 99.9713 190.399 99.7796C190.549 99.5878 190.815 99.5381 191.022 99.663L196.112 102.901C196.252 102.992 196.428 103.002 196.577 102.928C196.725 102.855 196.826 102.71 196.846 102.543L197.531 96.4424Z" fill="white"/>
    <path opacity="0.707584" d="M662.285 3.67524C662.319 3.2916 662.635 2.99841 663.013 3.00001C663.39 3.00158 663.705 3.29312 663.742 3.67524L664.788 12.9462C664.815 13.2016 664.971 13.4243 665.199 13.5336C665.426 13.6463 665.695 13.6309 665.908 13.4931L673.671 8.5504C673.997 8.29495 674.464 8.35693 674.715 8.68882C674.965 9.02072 674.904 9.49686 674.579 9.75231L668.12 16.3696C667.946 16.5456 667.873 16.801 667.928 17.0448C667.982 17.2963 668.16 17.5011 668.399 17.585L677.01 20.691C677.362 20.8179 677.564 21.1933 677.482 21.5642C677.399 21.9352 677.056 22.1839 676.685 22.1428L667.61 21.0962C667.358 21.0666 667.108 21.1711 666.948 21.373C666.789 21.5742 666.744 21.8453 666.829 22.0888L669.829 30.9073C670.012 31.2802 669.864 31.7337 669.498 31.9201C669.132 32.1066 668.687 31.9554 668.505 31.5825L663.629 23.6553C663.496 23.4396 663.263 23.3093 663.013 23.3109C662.762 23.3095 662.527 23.4394 662.391 23.6553L657.502 31.5488C657.319 31.9217 656.874 32.0728 656.508 31.8864C656.143 31.6999 655.994 31.2464 656.177 30.8735L659.185 22.0888C659.263 21.8448 659.219 21.5768 659.065 21.373C658.905 21.1721 658.656 21.0679 658.403 21.0962L649.315 22.1225C648.944 22.1636 648.601 21.9149 648.518 21.544C648.436 21.173 648.638 20.7976 648.99 20.6708L657.601 17.5647C657.837 17.4765 658.014 17.2736 658.072 17.0245C658.121 16.7797 658.047 16.526 657.873 16.3493L651.441 9.75231C651.188 9.4812 651.17 9.06148 651.399 8.76883C651.627 8.47618 652.033 8.40025 652.349 8.59092L660.119 13.5336C660.332 13.6714 660.6 13.6868 660.827 13.5741C661.054 13.4627 661.209 13.2412 661.238 12.9867L662.285 3.67524Z" fill="white"/>
    <circle opacity="0.380121" cx="740" cy="96.5" r="7.5" fill="#0B2648"/>
</svg>
