<?xml version="1.0" encoding="UTF-8"?>
<svg width="68px" height="32px" viewBox="0 0 68 32" version="1.1" xmlns="http://www.w3.org/2000/svg" xmlns:xlink="http://www.w3.org/1999/xlink">
    <title>waves long</title>
    <defs>
        <rect id="path-1" x="0" y="0" width="68" height="32"></rect>
    </defs>
    <g id="Homepage" stroke="none" stroke-width="1" fill="none" fill-rule="evenodd">
        <g id="Templates-/-Home" transform="translate(-194.000000, -442.000000)">
            <g id="waves-long" transform="translate(194.000000, 442.000000)">
                <mask id="mask-2" fill="white">
                    <use xlink:href="#path-1"></use>
                </mask>
                <g id="Mask"></g>
                <g mask="url(#mask-2)" stroke="#0097FF">
                    <g transform="translate(0.000000, 1.000000)">
                        <path d="M0,0 C16.983,0 16.983,10 33.967,10 C50.951,10 50.951,0 67.934,0 C84.918,0 84.918,10 101.901,10 C118.885,10 118.885,0 135.869,0 C152.852,0 152.852,10 169.835,10 C186.818,10 186.818,0 203.801,0 C220.783,0 220.783,10 237.765,10 C254.745,10 254.745,0 271.726,0 C288.708,0 288.708,10 305.69,10 C322.674,10 322.674,0 339.658,0 C356.64,0 356.64,10 373.622,10 C390.604,10 390.604,0 407.586,0 C424.568,0 424.568,10 441.55,10 C458.532,10 458.532,0 475.515,0 C492.498,0 492.498,10 509.48,10 C526.466,10 526.466,0 543.45,0 C560.434,0 560.434,10 577.417,10 C594.401,10 594.401,0 611.385,0 C628.368,0 628.368,10 645.353,10 C662.336,10 662.336,0 679.32,0 C696.304,0 696.304,10 713.288,10 C730.273,10 730.273,0 747.259,0 C764.244,0 764.244,10 781.229,10 C798.212,10 798.212,0 815.194,0 C832.178,0 832.178,10 849.161,10 C866.146,10 866.146,0 883.132,0 C900.117,0 900.117,10 917.104,10 C934.09,10 934.09,0 951.076,0 C968.062,0 968.062,10 985.048,10 C1002.035,10 1002.035,0 1019.023,0 C1036.012,0 1036.012,10 1053,10" id="Stroke-1"></path>
                        <path d="M0,10 C16.983,10 16.983,20 33.967,20 C50.951,20 50.951,10 67.934,10 C84.918,10 84.918,20 101.901,20 C118.885,20 118.885,10 135.869,10 C152.852,10 152.852,20 169.835,20 C186.818,20 186.818,10 203.801,10 C220.783,10 220.783,20 237.765,20 C254.745,20 254.745,10 271.726,10 C288.708,10 288.708,20 305.69,20 C322.674,20 322.674,10 339.658,10 C356.64,10 356.64,20 373.622,20 C390.604,20 390.604,10 407.586,10 C424.568,10 424.568,20 441.55,20 C458.532,20 458.532,10 475.515,10 C492.498,10 492.498,20 509.48,20 C526.466,20 526.466,10 543.45,10 C560.434,10 560.434,20 577.417,20 C594.401,20 594.401,10 611.385,10 C628.368,10 628.368,20 645.353,20 C662.336,20 662.336,10 679.32,10 C696.304,10 696.304,20 713.288,20 C730.273,20 730.273,10 747.259,10 C764.244,10 764.244,20 781.229,20 C798.212,20 798.212,10 815.194,10 C832.178,10 832.178,20 849.161,20 C866.146,20 866.146,10 883.132,10 C900.117,10 900.117,20 917.104,20 C934.09,20 934.09,10 951.076,10 C968.062,10 968.062,20 985.048,20 C1002.035,20 1002.035,10 1019.023,10 C1036.012,10 1036.012,20 1053,20" id="Stroke-1-Copy"></path>
                        <path d="M0,20 C16.983,20 16.983,30 33.967,30 C50.951,30 50.951,20 67.934,20 C84.918,20 84.918,30 101.901,30 C118.885,30 118.885,20 135.869,20 C152.852,20 152.852,30 169.835,30 C186.818,30 186.818,20 203.801,20 C220.783,20 220.783,30 237.765,30 C254.745,30 254.745,20 271.726,20 C288.708,20 288.708,30 305.69,30 C322.674,30 322.674,20 339.658,20 C356.64,20 356.64,30 373.622,30 C390.604,30 390.604,20 407.586,20 C424.568,20 424.568,30 441.55,30 C458.532,30 458.532,20 475.515,20 C492.498,20 492.498,30 509.48,30 C526.466,30 526.466,20 543.45,20 C560.434,20 560.434,30 577.417,30 C594.401,30 594.401,20 611.385,20 C628.368,20 628.368,30 645.353,30 C662.336,30 662.336,20 679.32,20 C696.304,20 696.304,30 713.288,30 C730.273,30 730.273,20 747.259,20 C764.244,20 764.244,30 781.229,30 C798.212,30 798.212,20 815.194,20 C832.178,20 832.178,30 849.161,30 C866.146,30 866.146,20 883.132,20 C900.117,20 900.117,30 917.104,30 C934.09,30 934.09,20 951.076,20 C968.062,20 968.062,30 985.048,30 C1002.035,30 1002.035,20 1019.023,20 C1036.012,20 1036.012,30 1053,30" id="Stroke-1-Copy-2"></path>
                    </g>
                </g>
            </g>
        </g>
    </g>
</svg>